<?xml version="1.0" standalone="no"?>
<!DOCTYPE svg PUBLIC "-//W3C//DTD SVG 20010904//EN"
 "http://www.w3.org/TR/2001/REC-SVG-20010904/DTD/svg10.dtd">
<svg version="1.0" xmlns="http://www.w3.org/2000/svg"
 width="382.000000pt" height="400.000000pt" viewBox="0 0 382.000000 400.000000"
 preserveAspectRatio="xMidYMid meet">

<g transform="translate(0.000000,400.000000) scale(0.100000,-0.100000)"
fill="#000000" stroke="none">
<path d="M2793 3915 c-30 -13 -53 -41 -53 -64 0 -6 14 -26 31 -46 28 -32 36
-35 84 -35 184 0 344 -79 466 -230 79 -97 139 -269 139 -395 0 -90 14 -131 50
-150 34 -18 53 -12 77 23 23 36 20 182 -6 284 -77 297 -255 501 -516 589 -96
32 -225 44 -272 24z"/>
<path d="M2773 3641 c-44 -28 -45 -69 -2 -105 25 -21 41 -26 85 -26 125 0 257
-89 314 -212 29 -62 50 -159 50 -230 0 -47 49 -94 81 -78 26 14 46 48 54 90
15 86 -50 292 -121 385 -67 88 -241 178 -365 190 -54 5 -69 3 -96 -14z"/>
<path d="M651 3605 c-58 -67 -28 -165 55 -181 46 -8 79 7 104 48 49 80 5 168
-83 168 -39 0 -49 -5 -76 -35z"/>
<path d="M1740 3605 c-82 -15 -122 -27 -247 -73 -214 -81 -377 -199 -539 -393
-119 -143 -194 -292 -250 -496 -23 -84 -27 -123 -31 -281 -5 -164 -3 -193 17
-280 80 -349 239 -667 559 -1117 159 -224 449 -554 554 -631 129 -95 169 -81
380 136 380 389 722 899 891 1329 86 219 123 488 96 711 -16 129 -71 314 -127
426 l-46 93 26 30 c52 63 42 173 -22 241 -57 60 -126 70 -200 30 -20 -10 -38
-3 -154 63 -73 41 -152 85 -177 97 -80 41 -250 99 -332 115 -97 18 -293 18
-398 0z m369 -160 c146 -24 270 -73 436 -175 108 -66 139 -94 174 -159 19 -37
53 -78 87 -107 87 -75 160 -228 210 -441 20 -88 20 -355 -1 -453 -40 -191
-108 -360 -237 -590 -180 -322 -330 -530 -623 -865 -102 -117 -207 -215 -229
-215 -20 1 -171 143 -275 260 -57 63 -160 192 -230 285 -308 413 -496 758
-569 1042 -25 101 -27 122 -26 308 1 226 11 284 82 445 154 348 500 624 839
669 98 13 267 11 362 -4z"/>
<path d="M1705 3305 c-194 -51 -333 -130 -466 -266 -133 -135 -225 -296 -275
-479 -23 -88 -23 -363 0 -465 68 -295 243 -621 564 -1050 152 -203 371 -455
396 -455 21 0 298 323 443 515 219 292 434 684 496 905 56 201 60 418 12 604
-67 258 -297 513 -573 638 -171 77 -419 99 -597 53z m387 -215 c29 -5 96 -31
148 -56 175 -86 324 -268 364 -445 32 -142 26 -326 -15 -434 -56 -149 -201
-305 -354 -381 -129 -63 -195 -78 -335 -72 -258 11 -451 127 -589 354 -43 70
-67 144 -81 250 -59 434 289 822 717 799 51 -3 116 -10 145 -15z m-85 -1672
c49 -29 73 -76 73 -140 0 -96 -63 -158 -161 -158 -111 0 -191 125 -144 225 45
94 145 126 232 73z"/>
<path d="M1775 2966 c-114 -37 -217 -111 -294 -213 -170 -225 -160 -530 23
-740 80 -91 230 -175 331 -185 l30 -3 3 68 3 67 59 0 60 0 0 -57 c0 -80 7 -87
61 -73 86 23 201 91 272 161 134 134 190 321 157 527 -22 133 -93 257 -189
328 -76 56 -201 115 -251 117 l-45 2 -3 -70 c-3 -76 -9 -85 -62 -85 -56 0 -64
11 -70 92 -6 83 -12 88 -85 64z m272 -300 c191 -89 242 -305 108 -454 -107
-119 -290 -139 -412 -46 -81 62 -131 187 -113 282 5 28 18 69 29 89 66 129
254 191 388 129z"/>
<path d="M1849 2548 c-51 -29 -79 -83 -79 -150 0 -69 28 -114 90 -146 143 -74
297 101 207 236 -30 45 -96 82 -148 82 -19 0 -50 -10 -70 -22z"/>
<path d="M502 2848 c-16 -16 -15 -43 3 -58 21 -17 35 -3 35 36 0 35 -16 44
-38 22z"/>
<path d="M445 2686 c-23 -34 -16 -61 15 -61 22 0 25 4 25 39 0 47 -18 57 -40
22z"/>
<path d="M123 2365 c-18 -8 -38 -26 -45 -40 -10 -22 -8 -30 9 -53 32 -44 66
-56 103 -37 59 30 59 99 1 130 -35 18 -28 18 -68 0z"/>
<path d="M380 2356 c-53 -57 3 -147 75 -120 23 9 47 61 39 87 -18 59 -73 75
-114 33z"/>
<path d="M3352 2357 c-31 -33 -29 -80 4 -106 36 -28 70 -26 99 5 32 34 32 68
0 99 -31 32 -74 33 -103 2z"/>
<path d="M3611 2344 c-27 -34 -26 -46 5 -83 32 -38 71 -41 102 -8 28 30 28 68
-1 95 -33 31 -80 29 -106 -4z"/>
<path d="M409 2129 c-21 -21 -20 -59 3 -101 22 -44 103 0 92 50 -16 69 -55 91
-95 51z"/>
<path d="M3365 2136 c-10 -7 -19 -31 -22 -61 -7 -54 9 -75 57 -75 22 0 29 7
39 38 19 56 12 83 -25 98 -25 11 -35 11 -49 0z"/>
<path d="M462 1918 c-27 -13 -26 -44 2 -111 17 -43 40 -47 79 -17 l26 20 -24
58 c-25 61 -41 70 -83 50z"/>
<path d="M3291 1864 c-21 -55 -21 -58 -4 -75 10 -10 32 -21 49 -25 26 -5 32
-2 42 20 7 15 15 44 18 64 7 43 -5 58 -53 68 -30 6 -31 4 -52 -52z"/>
<path d="M553 1680 c-18 -11 -33 -28 -33 -37 0 -24 41 -93 62 -107 20 -12 65
6 75 30 7 19 -46 134 -61 134 -6 0 -26 -9 -43 -20z"/>
<path d="M3216 1648 c-41 -73 -42 -85 -4 -108 18 -11 36 -20 41 -20 10 0 77
106 77 122 0 16 -50 48 -74 48 -8 0 -26 -19 -40 -42z"/>
<path d="M675 1456 c-57 -25 -59 -37 -18 -100 21 -31 44 -56 52 -56 20 0 81
42 81 57 0 9 -76 114 -83 113 -1 -1 -16 -7 -32 -14z"/>
<path d="M3113 1448 c-11 -13 -28 -37 -37 -55 -16 -31 -15 -32 15 -58 18 -14
39 -25 47 -23 8 2 30 25 49 52 37 53 34 64 -18 92 -35 18 -32 18 -56 -8z"/>
<path d="M2974 1225 c-8 -21 14 -45 42 -45 31 0 39 17 18 41 -20 23 -52 25
-60 4z"/>
<path d="M852 1208 c-17 -17 -15 -36 7 -47 21 -12 31 -5 31 19 0 26 -24 42
-38 28z"/>
<path d="M706 1005 c-63 -48 -72 -111 -22 -161 46 -46 94 -47 138 -4 28 28 30
36 25 78 -9 79 -87 128 -141 87z"/>
<path d="M3000 1013 c-53 -20 -82 -89 -60 -144 38 -91 147 -90 184 2 14 33 15
48 6 75 -19 58 -76 87 -130 67z"/>
</g>
</svg>
